# xmcd
#
# Track frame offsets: 
#        150
#        19939
#        39640
#        56859
#        76102
#        92672
#        106944
#        124292
#
# Disc length: 1947 seconds
#
# Revision: 0
# Processed by: cddbd v1.5.2PL0 Copyright (c) Steve Scherf et al.
# Submitted via: ExactAudioCopy v1.0b3
#
DISCID=62079908
DTITLE=Various Artist - Shkaktar
DYEAR=2014
DGENRE=Pop/Funk
TTITLE0=Shkaktar ( Sinan Vllasaliu)
TTITLE1=Unë ta fal një puthje ( Sinan Vllasaliu)
TTITLE2=Të fala ke dhe nga unë ( Ermal Fejzullahu)
TTITLE3=Gotitje në Zemër ( Sabri Fejzullahu)
TTITLE4=Jet o jet (Xeni)
TTITLE5=Lutjet për Prishtinën (Sabri Fejzullahu)
TTITLE6=Nafaka ( Ermal Fejzullahu)
TTITLE7=Buzët më janë tharë ( Sinan Vllasaliu)
EXTD=
EXTT0=
EXTT1=
EXTT2=
EXTT3=
EXTT4=
EXTT5=
EXTT6=
EXTT7=
PLAYORDER=
